<svg width="24" height="24" viewBox="0 0 24 24" fill="none" xmlns="http://www.w3.org/2000/svg">
<path d="M22.6435 1.06066C22.0577 0.474873 21.108 0.474874 20.5222 1.06066L13.0607 8.5222C12.4749 9.10798 11.5251 9.10798 10.9393 8.5222L3.4778 1.06066C2.89202 0.474873 1.94227 0.474874 1.35648 1.06066L1.06066 1.35648C0.474873 1.94227 0.474874 2.89202 1.06066 3.4778L8.5222 10.9393C9.10798 11.5251 9.10798 12.4749 8.5222 13.0607L1.06066 20.5222C0.474873 21.108 0.474874 22.0577 1.06066 22.6435L1.35648 22.9393C1.94227 23.5251 2.89202 23.5251 3.4778 22.9393L10.9393 15.4778C11.5251 14.892 12.4749 14.892 13.0607 15.4778L20.5222 22.9393C21.108 23.5251 22.0577 23.5251 22.6435 22.9393L22.9393 22.6435C23.5251 22.0577 23.5251 21.108 22.9393 20.5222L15.4778 13.0607C14.892 12.4749 14.892 11.5251 15.4778 10.9393L22.9393 3.4778C23.5251 2.89202 23.5251 1.94227 22.9393 1.35648L22.6435 1.06066Z" fill="#111827"/>
</svg>
